<?xml version="1.0" encoding="UTF-8" standalone="no"?>
<!DOCTYPE svg PUBLIC "-//W3C//DTD SVG 1.1//EN"
 "http://www.w3.org/Graphics/SVG/1.1/DTD/svg11.dtd">
<!-- Generated by graphviz version 2.47.0 (20210316.0004)
 -->
<!-- Title: dependencies Pages: 1 -->
<svg width="1993pt" height="287pt"
 viewBox="0.00 0.00 1993.00 287.00" xmlns="http://www.w3.org/2000/svg" xmlns:xlink="http://www.w3.org/1999/xlink">
<g id="graph0" class="graph" transform="scale(1 1) rotate(0) translate(4 283)">
<title>dependencies</title>
<polygon fill="white" stroke="transparent" points="-4,4 -4,-283 1989,-283 1989,4 -4,4"/>
<text text-anchor="start" x="971.51" y="-42.4" font-family="Times-12" font-weight="bold" font-size="14.00">Legend</text>
<polygon fill="#ffffb3" stroke="transparent" points="758.5,-10 758.5,-30 778.5,-30 778.5,-10 758.5,-10"/>
<text text-anchor="start" x="782.13" y="-15.4" font-family="Times-12" font-size="14.00"> &#160;Declarations</text>
<polygon fill="#8dd3c7" stroke="transparent" points="871.5,-10 871.5,-30 891.5,-30 891.5,-10 871.5,-10"/>
<text text-anchor="start" x="895.23" y="-15.4" font-family="Times-12" font-size="14.00"> &#160;Module</text>
<polygon fill="#80b1d3" stroke="transparent" points="957.5,-10 957.5,-30 977.5,-30 977.5,-10 957.5,-10"/>
<text text-anchor="start" x="981.28" y="-15.4" font-family="Times-12" font-size="14.00"> &#160;Bootstrap</text>
<polygon fill="#fdb462" stroke="transparent" points="1054.5,-10 1054.5,-30 1074.5,-30 1074.5,-10 1054.5,-10"/>
<text text-anchor="start" x="1078.17" y="-15.4" font-family="Times-12" font-size="14.00"> &#160;Providers</text>
<polygon fill="#fb8072" stroke="transparent" points="1150.5,-10 1150.5,-30 1170.5,-30 1170.5,-10 1150.5,-10"/>
<text text-anchor="start" x="1174.23" y="-15.4" font-family="Times-12" font-size="14.00"> &#160;Exports</text>
<g id="clust1" class="cluster">
<title>cluster_AppModule</title>
<polygon fill="none" stroke="black" stroke-dasharray="1,5" points="964,-70 964,-271 1679,-271 1679,-70 964,-70"/>
</g>
<g id="clust3" class="cluster">
<title>cluster_AppModule_imports</title>
<polygon fill="none" stroke="black" points="1110,-78 1110,-206 1659,-206 1659,-78 1110,-78"/>
</g>
<g id="clust6" class="cluster">
<title>cluster_AppModule_providers</title>
<polygon fill="none" stroke="black" points="972,-154 972,-206 1102,-206 1102,-154 972,-154"/>
</g>
<g id="clust7" class="cluster">
<title>cluster_AuthModule</title>
<polygon fill="none" stroke="black" stroke-dasharray="1,5" points="8,-70 8,-138 290,-138 290,-70 8,-70"/>
</g>
<g id="clust12" class="cluster">
<title>cluster_AuthModule_providers</title>
<polygon fill="none" stroke="black" points="16,-78 16,-130 282,-130 282,-78 16,-78"/>
</g>
<g id="clust13" class="cluster">
<title>cluster_OrderModule</title>
<polygon fill="none" stroke="black" stroke-dasharray="1,5" points="298,-70 298,-138 456,-138 456,-70 298,-70"/>
</g>
<g id="clust18" class="cluster">
<title>cluster_OrderModule_providers</title>
<polygon fill="none" stroke="black" points="306,-78 306,-130 448,-130 448,-78 306,-78"/>
</g>
<g id="clust19" class="cluster">
<title>cluster_PrismaModule</title>
<polygon fill="none" stroke="black" stroke-dasharray="1,5" points="1687,-146 1687,-214 1977,-214 1977,-146 1687,-146"/>
</g>
<g id="clust22" class="cluster">
<title>cluster_PrismaModule_exports</title>
<polygon fill="none" stroke="black" points="1853,-154 1853,-206 1969,-206 1969,-154 1853,-154"/>
</g>
<g id="clust24" class="cluster">
<title>cluster_PrismaModule_providers</title>
<polygon fill="none" stroke="black" points="1695,-154 1695,-206 1845,-206 1845,-154 1695,-154"/>
</g>
<g id="clust25" class="cluster">
<title>cluster_ProductModule</title>
<polygon fill="none" stroke="black" stroke-dasharray="1,5" points="464,-70 464,-138 636,-138 636,-70 464,-70"/>
</g>
<g id="clust30" class="cluster">
<title>cluster_ProductModule_providers</title>
<polygon fill="none" stroke="black" points="472,-78 472,-130 628,-130 628,-78 472,-78"/>
</g>
<g id="clust31" class="cluster">
<title>cluster_TableModule</title>
<polygon fill="none" stroke="black" stroke-dasharray="1,5" points="644,-70 644,-138 800,-138 800,-70 644,-70"/>
</g>
<g id="clust36" class="cluster">
<title>cluster_TableModule_providers</title>
<polygon fill="none" stroke="black" points="652,-78 652,-130 792,-130 792,-78 652,-78"/>
</g>
<g id="clust37" class="cluster">
<title>cluster_UserModule</title>
<polygon fill="none" stroke="black" stroke-dasharray="1,5" points="808,-70 808,-138 956,-138 956,-70 808,-70"/>
</g>
<g id="clust42" class="cluster">
<title>cluster_UserModule_providers</title>
<polygon fill="none" stroke="black" points="816,-78 816,-130 948,-130 948,-78 816,-78"/>
</g>
<!-- AuthModule -->
<g id="node1" class="node">
<title>AuthModule</title>
<polygon fill="#8dd3c7" stroke="black" points="1205.55,-198 1202.55,-202 1181.55,-202 1178.55,-198 1118.45,-198 1118.45,-162 1205.55,-162 1205.55,-198"/>
<text text-anchor="middle" x="1162" y="-175.8" font-family="Times,serif" font-size="14.00">AuthModule</text>
</g>
<!-- AppModule -->
<g id="node7" class="node">
<title>AppModule</title>
<polygon fill="#8dd3c7" stroke="black" points="1427.66,-263 1424.66,-267 1403.66,-267 1400.66,-263 1344.34,-263 1344.34,-227 1427.66,-227 1427.66,-263"/>
<text text-anchor="middle" x="1386" y="-240.8" font-family="Times,serif" font-size="14.00">AppModule</text>
</g>
<!-- AuthModule&#45;&gt;AppModule -->
<g id="edge1" class="edge">
<title>AuthModule&#45;&gt;AppModule</title>
<path fill="none" stroke="black" d="M1162,-198.11C1162,-217.34 1162,-245 1162,-245 1162,-245 1334.13,-245 1334.13,-245"/>
<polygon fill="black" stroke="black" points="1334.13,-248.5 1344.13,-245 1334.13,-241.5 1334.13,-248.5"/>
</g>
<!-- OrderModule -->
<g id="node2" class="node">
<title>OrderModule</title>
<polygon fill="#8dd3c7" stroke="black" points="1316.19,-198 1313.19,-202 1292.19,-202 1289.19,-198 1223.81,-198 1223.81,-162 1316.19,-162 1316.19,-198"/>
<text text-anchor="middle" x="1270" y="-175.8" font-family="Times,serif" font-size="14.00">OrderModule</text>
</g>
<!-- OrderModule&#45;&gt;AppModule -->
<g id="edge2" class="edge">
<title>OrderModule&#45;&gt;AppModule</title>
<path fill="none" stroke="black" d="M1270,-198.03C1270,-214.4 1270,-236 1270,-236 1270,-236 1334.12,-236 1334.12,-236"/>
<polygon fill="black" stroke="black" points="1334.12,-239.5 1344.12,-236 1334.12,-232.5 1334.12,-239.5"/>
</g>
<!-- PrismaModule -->
<g id="node3" class="node">
<title>PrismaModule</title>
<polygon fill="#8dd3c7" stroke="black" points="1600.43,-122 1597.43,-126 1576.43,-126 1573.43,-122 1501.57,-122 1501.57,-86 1600.43,-86 1600.43,-122"/>
<text text-anchor="middle" x="1551" y="-99.8" font-family="Times,serif" font-size="14.00">PrismaModule</text>
</g>
<!-- PrismaModule&#45;&gt;AuthModule -->
<g id="edge8" class="edge">
<title>PrismaModule&#45;&gt;AuthModule</title>
<path fill="none" stroke="black" d="M1501.49,-95C1401.28,-95 1183.89,-95 1183.89,-95 1183.89,-95 1183.89,-151.97 1183.89,-151.97"/>
<polygon fill="black" stroke="black" points="1180.39,-151.97 1183.89,-161.97 1187.39,-151.97 1180.39,-151.97"/>
</g>
<!-- PrismaModule&#45;&gt;OrderModule -->
<g id="edge11" class="edge">
<title>PrismaModule&#45;&gt;OrderModule</title>
<path fill="none" stroke="black" d="M1501.66,-104C1424.84,-104 1285.37,-104 1285.37,-104 1285.37,-104 1285.37,-151.99 1285.37,-151.99"/>
<polygon fill="black" stroke="black" points="1281.87,-151.99 1285.37,-161.99 1288.87,-151.99 1281.87,-151.99"/>
</g>
<!-- ProductModule -->
<g id="node4" class="node">
<title>ProductModule</title>
<polygon fill="#8dd3c7" stroke="black" points="1437.6,-198 1434.6,-202 1413.6,-202 1410.6,-198 1334.4,-198 1334.4,-162 1437.6,-162 1437.6,-198"/>
<text text-anchor="middle" x="1386" y="-175.8" font-family="Times,serif" font-size="14.00">ProductModule</text>
</g>
<!-- PrismaModule&#45;&gt;ProductModule -->
<g id="edge15" class="edge">
<title>PrismaModule&#45;&gt;ProductModule</title>
<path fill="none" stroke="black" d="M1501.78,-113C1458.78,-113 1403.18,-113 1403.18,-113 1403.18,-113 1403.18,-151.69 1403.18,-151.69"/>
<polygon fill="black" stroke="black" points="1399.68,-151.69 1403.18,-161.69 1406.68,-151.69 1399.68,-151.69"/>
</g>
<!-- TableModule -->
<g id="node5" class="node">
<title>TableModule</title>
<polygon fill="#8dd3c7" stroke="black" points="1546.92,-198 1543.92,-202 1522.92,-202 1519.92,-198 1455.08,-198 1455.08,-162 1546.92,-162 1546.92,-198"/>
<text text-anchor="middle" x="1501" y="-175.8" font-family="Times,serif" font-size="14.00">TableModule</text>
</g>
<!-- PrismaModule&#45;&gt;TableModule -->
<g id="edge17" class="edge">
<title>PrismaModule&#45;&gt;TableModule</title>
<path fill="none" stroke="black" d="M1524.25,-122.01C1524.25,-122.01 1524.25,-151.85 1524.25,-151.85"/>
<polygon fill="black" stroke="black" points="1520.75,-151.85 1524.25,-161.85 1527.75,-151.85 1520.75,-151.85"/>
</g>
<!-- UserModule -->
<g id="node6" class="node">
<title>UserModule</title>
<polygon fill="#8dd3c7" stroke="black" points="1650.98,-198 1647.98,-202 1626.98,-202 1623.98,-198 1565.02,-198 1565.02,-162 1650.98,-162 1650.98,-198"/>
<text text-anchor="middle" x="1608" y="-175.8" font-family="Times,serif" font-size="14.00">UserModule</text>
</g>
<!-- PrismaModule&#45;&gt;UserModule -->
<g id="edge19" class="edge">
<title>PrismaModule&#45;&gt;UserModule</title>
<path fill="none" stroke="black" d="M1588.48,-122.01C1588.48,-122.01 1588.48,-151.85 1588.48,-151.85"/>
<polygon fill="black" stroke="black" points="1584.98,-151.85 1588.48,-161.85 1591.98,-151.85 1584.98,-151.85"/>
</g>
<!-- PrismaModule&#45;&gt;AppModule -->
<g id="edge3" class="edge">
<title>PrismaModule&#45;&gt;AppModule</title>
<path fill="none" stroke="black" d="M1555.86,-122.14C1555.86,-160.23 1555.86,-245 1555.86,-245 1555.86,-245 1437.99,-245 1437.99,-245"/>
<polygon fill="black" stroke="black" points="1437.99,-241.5 1427.99,-245 1437.99,-248.5 1437.99,-241.5"/>
</g>
<!-- PrismaService  -->
<g id="node12" class="node">
<title>PrismaService </title>
<polygon fill="#fb8072" stroke="black" points="1961.36,-198 1860.64,-198 1860.64,-162 1961.36,-162 1961.36,-198"/>
<text text-anchor="middle" x="1911" y="-175.8" font-family="Times,serif" font-size="14.00">PrismaService </text>
</g>
<!-- PrismaModule&#45;&gt;PrismaService  -->
<g id="edge13" class="edge">
<title>PrismaModule&#45;&gt;PrismaService </title>
<path fill="none" stroke="black" stroke-dasharray="5,2" d="M1600.3,-98C1698.9,-98 1911,-98 1911,-98 1911,-98 1911,-151.8 1911,-151.8"/>
<polygon fill="black" stroke="black" points="1907.5,-151.8 1911,-161.8 1914.5,-151.8 1907.5,-151.8"/>
</g>
<!-- ProductModule&#45;&gt;AppModule -->
<g id="edge4" class="edge">
<title>ProductModule&#45;&gt;AppModule</title>
<path fill="none" stroke="black" d="M1386,-198.11C1386,-198.11 1386,-216.99 1386,-216.99"/>
<polygon fill="black" stroke="black" points="1382.5,-216.99 1386,-226.99 1389.5,-216.99 1382.5,-216.99"/>
</g>
<!-- TableModule&#45;&gt;AppModule -->
<g id="edge5" class="edge">
<title>TableModule&#45;&gt;AppModule</title>
<path fill="none" stroke="black" d="M1501,-198.03C1501,-214.4 1501,-236 1501,-236 1501,-236 1437.84,-236 1437.84,-236"/>
<polygon fill="black" stroke="black" points="1437.84,-232.5 1427.84,-236 1437.84,-239.5 1437.84,-232.5"/>
</g>
<!-- UserModule&#45;&gt;AppModule -->
<g id="edge6" class="edge">
<title>UserModule&#45;&gt;AppModule</title>
<path fill="none" stroke="black" d="M1608,-198.29C1608,-220.21 1608,-254 1608,-254 1608,-254 1437.76,-254 1437.76,-254"/>
<polygon fill="black" stroke="black" points="1437.76,-250.5 1427.76,-254 1437.76,-257.5 1437.76,-250.5"/>
</g>
<!-- AppService -->
<g id="node8" class="node">
<title>AppService</title>
<ellipse fill="#fdb462" stroke="black" cx="1037" cy="-180" rx="56.74" ry="18"/>
<text text-anchor="middle" x="1037" y="-175.8" font-family="Times,serif" font-size="14.00">AppService</text>
</g>
<!-- AppService&#45;&gt;AppModule -->
<g id="edge7" class="edge">
<title>AppService&#45;&gt;AppModule</title>
<path fill="none" stroke="black" d="M1037,-198.29C1037,-220.21 1037,-254 1037,-254 1037,-254 1334.25,-254 1334.25,-254"/>
<polygon fill="black" stroke="black" points="1334.25,-257.5 1344.25,-254 1334.25,-250.5 1334.25,-257.5"/>
</g>
<!-- AuthService -->
<g id="node9" class="node">
<title>AuthService</title>
<ellipse fill="#fdb462" stroke="black" cx="215" cy="-104" rx="59.11" ry="18"/>
<text text-anchor="middle" x="215" y="-99.8" font-family="Times,serif" font-size="14.00">AuthService</text>
</g>
<!-- AuthService&#45;&gt;AuthModule -->
<g id="edge9" class="edge">
<title>AuthService&#45;&gt;AuthModule</title>
<path fill="none" stroke="black" d="M215,-122.04C215,-135.29 215,-151 215,-151 215,-151 1162,-151 1162,-151 1162,-151 1162,-152.08 1162,-152.08"/>
<polygon fill="black" stroke="black" points="1158.5,-151.8 1162,-161.8 1165.5,-151.8 1158.5,-151.8"/>
</g>
<!-- JwtStrategy -->
<g id="node10" class="node">
<title>JwtStrategy</title>
<ellipse fill="#fdb462" stroke="black" cx="81" cy="-104" rx="56.76" ry="18"/>
<text text-anchor="middle" x="81" y="-99.8" font-family="Times,serif" font-size="14.00">JwtStrategy</text>
</g>
<!-- JwtStrategy&#45;&gt;AuthModule -->
<g id="edge10" class="edge">
<title>JwtStrategy&#45;&gt;AuthModule</title>
<path fill="none" stroke="black" d="M81,-122.24C81,-137.57 81,-157 81,-157 81,-157 1140.11,-157 1140.11,-157 1140.11,-157 1140.11,-157.49 1140.11,-157.49"/>
<polygon fill="black" stroke="black" points="1136.61,-151.88 1140.11,-161.88 1143.61,-151.88 1136.61,-151.88"/>
</g>
<!-- OrderService -->
<g id="node11" class="node">
<title>OrderService</title>
<ellipse fill="#fdb462" stroke="black" cx="377" cy="-104" rx="62.52" ry="18"/>
<text text-anchor="middle" x="377" y="-99.8" font-family="Times,serif" font-size="14.00">OrderService</text>
</g>
<!-- OrderService&#45;&gt;OrderModule -->
<g id="edge12" class="edge">
<title>OrderService&#45;&gt;OrderModule</title>
<path fill="none" stroke="black" d="M377,-122.1C377,-133.09 377,-145 377,-145 377,-145 1254.63,-145 1254.63,-145 1254.63,-145 1254.63,-151.68 1254.63,-151.68"/>
<polygon fill="black" stroke="black" points="1251.13,-151.68 1254.63,-161.68 1258.13,-151.68 1251.13,-151.68"/>
</g>
<!-- PrismaService -->
<g id="node13" class="node">
<title>PrismaService</title>
<ellipse fill="#fdb462" stroke="black" cx="1770" cy="-180" rx="66.63" ry="18"/>
<text text-anchor="middle" x="1770" y="-175.8" font-family="Times,serif" font-size="14.00">PrismaService</text>
</g>
<!-- PrismaService&#45;&gt;PrismaModule -->
<g id="edge14" class="edge">
<title>PrismaService&#45;&gt;PrismaModule</title>
<path fill="none" stroke="black" d="M1770,-161.97C1770,-141.23 1770,-110 1770,-110 1770,-110 1610.42,-110 1610.42,-110"/>
<polygon fill="black" stroke="black" points="1610.42,-106.5 1600.42,-110 1610.42,-113.5 1610.42,-106.5"/>
</g>
<!-- ProductService -->
<g id="node14" class="node">
<title>ProductService</title>
<ellipse fill="#fdb462" stroke="black" cx="550" cy="-104" rx="70.06" ry="18"/>
<text text-anchor="middle" x="550" y="-99.8" font-family="Times,serif" font-size="14.00">ProductService</text>
</g>
<!-- ProductService&#45;&gt;ProductModule -->
<g id="edge16" class="edge">
<title>ProductService&#45;&gt;ProductModule</title>
<path fill="none" stroke="black" d="M550,-122C550,-131 550,-140 550,-140 550,-140 1368.82,-140 1368.82,-140 1368.82,-140 1368.82,-151.87 1368.82,-151.87"/>
<polygon fill="black" stroke="black" points="1365.32,-151.87 1368.82,-161.87 1372.32,-151.87 1365.32,-151.87"/>
</g>
<!-- TableService -->
<g id="node15" class="node">
<title>TableService</title>
<ellipse fill="#fdb462" stroke="black" cx="722" cy="-104" rx="61.95" ry="18"/>
<text text-anchor="middle" x="722" y="-99.8" font-family="Times,serif" font-size="14.00">TableService</text>
</g>
<!-- TableService&#45;&gt;TableModule -->
<g id="edge18" class="edge">
<title>TableService&#45;&gt;TableModule</title>
<path fill="none" stroke="black" d="M722,-122.14C722,-128.46 722,-134 722,-134 722,-134 1478.54,-134 1478.54,-134 1478.54,-134 1478.54,-151.82 1478.54,-151.82"/>
<polygon fill="black" stroke="black" points="1475.04,-151.82 1478.54,-161.82 1482.04,-151.82 1475.04,-151.82"/>
</g>
<!-- UserService -->
<g id="node16" class="node">
<title>UserService</title>
<ellipse fill="#fdb462" stroke="black" cx="882" cy="-104" rx="58.44" ry="18"/>
<text text-anchor="middle" x="882" y="-99.8" font-family="Times,serif" font-size="14.00">UserService</text>
</g>
<!-- UserService&#45;&gt;UserModule -->
<g id="edge20" class="edge">
<title>UserService&#45;&gt;UserModule</title>
<path fill="none" stroke="black" d="M882,-122.19C882,-125.54 882,-128 882,-128 882,-128 1576.75,-128 1576.75,-128 1576.75,-128 1576.75,-151.81 1576.75,-151.81"/>
<polygon fill="black" stroke="black" points="1573.25,-151.81 1576.75,-161.81 1580.25,-151.81 1573.25,-151.81"/>
</g>
</g>
</svg>
